Coordinates
version=1
nRows=14
nColumns=36
inDegrees=yes

Units are S.I. units (second, meters, Newtons, ...)
If the header above contains a line with 'inDegrees', this indicates whether rotational values are in degrees (yes) or radians (no).

endheader
time	pelvis_tilt	pelvis_list	pelvis_rotation	pelvis_tx	pelvis_ty	pelvis_tz	hip_flexion_r	hip_adduction_r	hip_rotation_r	knee_angle_r	knee_angle_r_beta	ankle_angle_r	subtalar_angle_r	mtp_angle_r	hip_flexion_l	hip_adduction_l	hip_rotation_l	knee_angle_l	knee_angle_l_beta	ankle_angle_l	subtalar_angle_l	mtp_angle_l	lumbar_extension	lumbar_bending	lumbar_rotation	arm_flex_r	arm_add_r	arm_rot_r	elbow_flex_r	pro_sup_r	arm_flex_l	arm_add_l	arm_rot_l	elbow_flex_l	pro_sup_l
      0.00000000	     -1.15705537	      3.87680441	     92.09721394	     -0.22498367	      0.93079476	      1.07860807	     23.63408837	     -0.50701311	     -7.29070078	     22.52738678	      0.39317707	     -6.25716250	     -6.52804092	     -7.46428640	    -15.27006940	      1.83456796	     -8.13053047	     27.74985515	      0.48432634	      3.15275958	      2.34501065	     -7.46428640	    -16.34407929	      0.59069115	     -4.92571078	     -2.38384643	     -4.44358357	    -40.25789864	     40.95702731	     94.42537653	     16.34342282	    -10.45373378	    -16.42432527	     48.55662771	     86.42448278
      0.01000000	     -0.49669560	      4.40242120	     91.89566489	     -0.22303273	      0.93264117	      1.06396428	     22.72546230	      0.58323888	     -6.18025867	     23.71156873	      0.41384495	     -5.40198946	     -8.25771708	     -7.47423792	    -15.10053113	      0.74002556	     -8.33954280	     30.39568830	      0.53050484	     -0.39399684	      1.40669354	     -7.47423792	    -16.70499387	      1.21297367	     -4.42645846	     -1.87384924	     -4.32230296	    -41.57656939	     39.82543864	    101.00697859	     15.89705524	    -10.04175982	    -17.48968840	     48.40682509	     89.52833008
      0.02000000	      0.04580842	      5.02095993	     91.70518456	     -0.22152900	      0.93476059	      1.04943666	     21.58364658	      1.48659311	     -5.44627657	     24.70219941	      0.43113471	     -4.07287891	     -9.18857268	     -7.48024761	    -14.85839530	     -0.13309542	     -8.16167377	     33.08793997	      0.57749350	     -4.76430089	     -0.20923686	     -7.48024761	    -17.16938141	      1.73008797	     -3.95638109	     -1.67265305	     -4.43757127	    -41.47970761	     39.05582515	     99.05085643	     15.31617376	     -9.75958790	    -17.68544892	     48.39706729	     87.12820067
      0.03000000	      0.57547630	      5.36950534	     91.77253219	     -0.22021579	      0.93652419	      1.03524514	     20.65687882	      2.26567572	     -4.98876270	     25.57785737	      0.44641783	     -2.81951489	     -9.85262535	     -7.48851952	    -13.91419772	     -1.04434838	     -7.63615776	     36.28156922	      0.63323284	     -9.62484625	     -1.82418403	     -7.48851952	    -17.35974127	      2.28565100	     -3.77932038	     -1.36055600	     -4.39391804	    -41.96337558	     38.31535599	    102.32342827	     14.72728238	     -9.42881277	    -18.75708534	     48.29532541	     90.96243501
      0.04000000	      1.08118087	      5.47738091	     91.67579319	     -0.21967408	      0.93805703	      1.02171943	     19.76000960	      2.94204176	     -4.73239586	     25.82586845	      0.45074644	     -1.85209557	    -10.40054010	     -7.49109121	    -12.47732877	     -1.80234905	     -7.12560763	     39.67225909	      0.69241154	    -13.95757542	     -3.28951678	     -7.49109121	    -17.40728502	      2.83796980	     -3.31166120	     -1.39109977	     -4.68350614	    -41.34146241	     38.03456893	    100.82590763	     14.23853552	     -8.90937477	    -19.05960386	     48.07489450	     88.62774649
      0.05000000	      1.79665833	      5.65383892	     92.00280722	     -0.21910918	      0.93977659	      1.00841409	     18.71110324	      3.61665056	     -5.38337485	     25.91575902	      0.45231532	     -0.95229400	     -9.91251972	     -7.49166791	    -10.92288820	     -2.94827431	     -6.22139066	     43.13654768	      0.75287478	    -16.89303675	     -4.42819535	     -7.49166791	    -17.51043779	      3.65448379	     -3.17827453	     -1.29840282	     -4.74527469	    -41.19057458	     37.79447978	    100.10009521	     13.82118865	     -8.56756300	    -19.37317505	     47.66963660	     88.14936056
      0.06000000	      2.28829580	      5.61441284	     92.28381477	     -0.21958149	      0.94122913	      0.99538018	     17.80650099	      4.04427324	     -5.84286642	     25.82578055	      0.45074490	      0.02526316	     -9.46443851	     -7.49211828	     -9.04164455	     -3.62315210	     -5.28807908	     46.58399350	      0.81304407	    -19.62193378	     -6.19939571	     -7.49211828	    -17.40013618	      4.32621717	     -3.02853531	     -1.22997327	     -4.94384106	    -41.10365635	     37.69941395	    100.13392054	     13.40255220	     -7.97122072	    -19.97413641	     47.25147274	     88.09146149
      0.07000000	      2.70062122	      5.72540833	     92.58318399	     -0.21968001	      0.94308045	      0.98239748	     16.65474878	      4.42437183	     -6.36326612	     25.57121272	      0.44630186	      0.92909938	     -8.91101178	     -7.49233992	     -7.32075330	     -4.32250174	     -4.72270997	     49.85010966	      0.87004855	    -22.70137904	     -8.26544884	     -7.49233992	    -17.46878370	      4.83913730	     -2.83028009	     -1.21180393	     -5.05200950	    -41.02056259	     37.66609858	    100.30074810	     12.98463893	     -7.60323861	    -20.18257861	     46.76632456	     88.09997616
      0.08000000	      2.85308524	      5.58607756	     93.09387595	     -0.22040602	      0.94473117	      0.96997742	     15.78751930	      4.39837199	     -7.23164842	     25.31038057	      0.44174948	      1.90376444	     -8.09982505	     -7.49260554	     -5.17408975	     -4.63607641	     -3.84035554	     53.07503749	      0.92633415	    -25.88793739	    -11.35489119	     -7.49260554	    -17.30622443	      5.13067546	     -2.85722837	     -1.12372733	     -5.08454687	    -41.08674405	     37.74480524	    100.78509100	     12.68224921	     -7.14885568	    -20.61522115	     46.13412829	     88.28299801
      0.09000000	      3.10094712	      5.80888462	     93.45599957	     -0.22063902	      0.94716095	      0.95763175	     14.38181466	      4.63101654	     -7.83807058	     24.74613751	      0.43190158	      2.56963724	     -7.59723953	     -7.49261395	     -3.51126467	     -5.21753322	     -3.50509862	     55.85493826	      0.97485258	    -28.34477486	    -14.22889114	     -7.49261395	    -17.55557901	      5.44415745	     -2.74197709	     -0.87110038	     -5.14908536	    -41.08210285	     37.59767215	    101.45050168	     12.46408908	     -6.81910703	    -20.90250165	     45.35632248	     88.61932091
      0.10000000	      2.88764986	      5.36796009	     93.97652433	     -0.22126904	      0.94879554	      0.94581145	     13.78460285	      4.22890598	     -8.68234088	     24.36157539	      0.42518970	      3.56056769	     -6.27082071	     -7.49302080	     -1.04079727	     -5.13027546	     -2.93641421	     58.49232378	      1.02088364	    -29.85967566	    -18.24958328	     -7.49302080	    -17.12944579	      5.23269174	     -2.80371828	     -0.68233963	     -5.06952710	    -41.28998387	     37.44749028	    102.16859801	     12.25316280	     -6.37920021	    -21.60456142	     44.57116771	     89.01851983
      0.11000000	      3.02078420	      5.14620265	     94.52138978	     -0.22160885	      0.95064193	      0.93428141	     12.84453340	      4.33846490	     -9.34076148	     23.63309006	      0.41247523	      4.11871149	     -5.76663381	     -7.49319467	      1.25886466	     -5.56716255	     -2.64055082	     60.96214100	      1.06399008	    -29.84760654	    -22.09108160	     -7.49319467	    -16.97491810	      5.40697848	     -2.92745010	     -0.39964643	     -4.98258820	    -41.37813223	     37.57153427	    102.67013502	     11.93447252	     -6.20382380	    -21.83417749	     43.94197355	     89.31511840
      0.12000000	      3.05374700	      4.82581904	     95.01753277	     -0.22191771	      0.95239034	      0.92278757	     12.03809051	      4.34393610	     -9.93642921	     22.96009829	      0.40072931	      4.62173204	     -5.06700025	     -7.49341285	      3.60839577	     -5.75697779	     -2.31826876	     63.10262327	      1.10134854	    -28.20366495	    -25.47807623	     -7.49341285	    -16.70774988	      5.40677775	     -2.86307112	     -0.27318375	     -4.95247558	    -41.33234880	     37.70665772	    102.86389604	     11.75495562	     -5.95321709	    -22.09146362	     43.09665204	     89.45239962
      0.13000000	      2.85667623	      4.85673337	     95.32110443	     -0.22188386	      0.95468496	      0.91162012	     10.82512593	      4.26733636	     -9.97914516	     22.19372797	      0.38735363	      5.04046739	     -4.82085896	     -7.49342450	      5.46832591	     -5.68862013	     -2.17661138	     64.78227179	      1.13066394	    -25.82328529	    -28.17194081	     -7.49342450	    -16.96472379	      5.12307697	     -2.75578756	      0.12907175	     -4.86267962	    -41.22939525	     37.73262533	    103.05398626	     11.51882909	     -5.93611929	    -22.16236968	     42.56342812	     89.55336990
